<svg xmlns="http://www.w3.org/2000/svg" version="1.1" xmlns:xlink="http://www.w3.org/1999/xlink" xmlns:svgjs="http://svgjs.com/svgjs" width="1000" height="1000"><rect width="1000" height="1000" rx="500" ry="500" fill="#96d35f"></rect><g transform="matrix(1.5625030517637728,0,0,1.5625030517637728,99.99978955917629,99.99995466517186)"><svg xmlns="http://www.w3.org/2000/svg" version="1.1" xmlns:xlink="http://www.w3.org/1999/xlink" xmlns:svgjs="http://svgjs.com/svgjs" width="511.999" height="511.999"><svg enable-background="new 0 0 511.999 511.999" viewBox="0 0 511.999 511.999" xmlns="http://www.w3.org/2000/svg"><path d="m456.111 74.597c-.559-3.448-3.536-5.981-7.029-5.981-2.98 0-67.359.466-124.253 37.169 12.103-36.211 32.14-67.508 59.795-93.204 1.627-1.361 2.54-3.374 2.54-5.452 0-1.05-.233-2.118-.724-3.125-1.699-3.483-5.873-4.952-9.377-3.348-1.652.75-31.893 14.696-62.721 43.554-27.96 26.173-47.138 56.221-56.763 88.507-9.624-32.285-28.797-62.334-56.754-88.506-29.422-27.542-58.889-41.76-62.422-43.413-2.74-1.425-6.195-.934-8.433 1.416-2.712 2.847-2.597 7.361.252 10.074l.071.068c28.482 26.389 48.922 58.651 60.95 96.104-57.806-39.344-125.207-39.844-128.325-39.844-3.493 0-6.47 2.533-7.029 5.981-.56 3.447 1.464 6.792 4.777 7.897 61.611 20.539 99.177 62.685 119.841 94.423 15.655 24.044 24.278 45.94 28.121 57.207h-63.277c-2.004 0-3.915.844-5.264 2.325s-2.013 3.462-1.827 5.456l17.436 187.326c.747 7.995 3.156 15.748 6.978 22.732h-40.22c-3.932 0-7.122 3.189-7.122 7.122v3.062c0 27.489 22.363 49.852 49.852 49.852h181.627c27.489 0 49.852-22.363 49.852-49.852v-3.062c0-3.932-3.189-7.122-7.122-7.122h-40.22c3.822-6.984 6.233-14.738 6.978-22.735l17.436-187.324c.186-1.995-.477-3.976-1.827-5.456-1.35-1.481-3.261-2.325-5.264-2.325h-63.284c3.804-11.176 12.324-32.83 27.855-56.784 20.68-31.896 58.307-74.241 120.117-94.848 3.315-1.103 5.338-4.447 4.779-7.894zm-113.485-35.593c-16.877 23.89-29.172 50.902-36.746 80.736-13.732 11.464-25.51 24.741-34.983 39.533-1.996 3.109-3.881 6.312-5.689 9.577 5.084-62.209 45.354-105.158 77.418-129.846zm-170.146-.087c33.225 25.537 75.298 70.704 77.882 136.729-9.985-20.033-23.443-37.594-40.233-52.471-7.495-31.242-20.099-59.44-37.649-84.258zm20.254 130.675c-16.436-25.35-42.998-56.938-82.97-80.391 26.894 6.241 60.861 18.622 89.31 43.18l.001.013c24.081 20.78 40.926 47.489 50.07 79.391 2.058 7.149 3.74 14.64 5.035 22.34h-30.549c-3.092-9.989-12.096-35.536-30.897-64.533zm189.457 296.616c-2.02 17.731-17.116 31.549-35.378 31.549h-181.627c-18.262 0-33.358-13.818-35.378-31.549zm-23.359-217.841-16.712 179.54c-.836 8.963-4.252 17.218-9.906 24.057h-152.429c-5.655-6.839-9.071-15.093-9.906-24.055l-16.712-179.543h205.665zm-39.567-78.775c-18.801 28.997-27.805 54.544-30.896 64.532h-19.779c-1.313-8.315-3.034-16.431-5.18-24.194 4.656-15.61 11.189-30.063 19.478-42.969 9.09-14.192 20.475-26.89 33.845-37.746 27.547-22.406 59.703-33.985 85.422-39.967-39.93 23.45-66.465 55.011-82.89 80.344z"></path></svg></svg></g></svg>